# Tiled2Unity generated file. Do not modify by hand.
# Wavefront file for 'sample_indoor_mesh_0001.obj'

# Vertices (Count = 984)
v -112 -144 0
v -128 -144 0
v -128 -128 0
v -112 -128 0
v -128 -144 0
v -144 -144 0
v -144 -128 0
v -128 -128 0
v -144 -144 0
v -160 -144 0
v -160 -128 0
v -144 -128 0
v -160 -144 0
v -176 -144 0
v -176 -128 0
v -160 -128 0
v -176 -144 0
v -192 -144 0
v -192 -128 0
v -176 -128 0
v -192 -144 0
v -208 -144 0
v -208 -128 0
v -192 -128 0
v -208 -144 0
v -224 -144 0
v -224 -128 0
v -208 -128 0
v -224 -144 0
v -240 -144 0
v -240 -128 0
v -224 -128 0
v -240 -144 0
v -256 -144 0
v -256 -128 0
v -240 -128 0
v -336 -144 0
v -352 -144 0
v -352 -128 0
v -336 -128 0
v -352 -144 0
v -368 -144 0
v -368 -128 0
v -352 -128 0
v -368 -144 0
v -384 -144 0
v -384 -128 0
v -368 -128 0
v -384 -144 0
v -400 -144 0
v -400 -128 0
v -384 -128 0
v -400 -144 0
v -416 -144 0
v -416 -128 0
v -400 -128 0
v -416 -144 0
v -432 -144 0
v -432 -128 0
v -416 -128 0
v -432 -144 0
v -448 -144 0
v -448 -128 0
v -432 -128 0
v -448 -144 0
v -464 -144 0
v -464 -128 0
v -448 -128 0
v -112 -160 0
v -128 -160 0
v -128 -144 0
v -112 -144 0
v -128 -160 0
v -144 -160 0
v -144 -144 0
v -128 -144 0
v -144 -160 0
v -160 -160 0
v -160 -144 0
v -144 -144 0
v -160 -160 0
v -176 -160 0
v -176 -144 0
v -160 -144 0
v -176 -160 0
v -192 -160 0
v -192 -144 0
v -176 -144 0
v -192 -160 0
v -208 -160 0
v -208 -144 0
v -192 -144 0
v -208 -160 0
v -224 -160 0
v -224 -144 0
v -208 -144 0
v -224 -160 0
v -240 -160 0
v -240 -144 0
v -224 -144 0
v -240 -160 0
v -256 -160 0
v -256 -144 0
v -240 -144 0
v -256 -160 0
v -272 -160 0
v -272 -144 0
v -256 -144 0
v -272 -160 0
v -288 -160 0
v -288 -144 0
v -272 -144 0
v -288 -160 0
v -304 -160 0
v -304 -144 0
v -288 -144 0
v -304 -160 0
v -320 -160 0
v -320 -144 0
v -304 -144 0
v -320 -160 0
v -336 -160 0
v -336 -144 0
v -320 -144 0
v -336 -160 0
v -352 -160 0
v -352 -144 0
v -336 -144 0
v -352 -160 0
v -368 -160 0
v -368 -144 0
v -352 -144 0
v -368 -160 0
v -384 -160 0
v -384 -144 0
v -368 -144 0
v -384 -160 0
v -400 -160 0
v -400 -144 0
v -384 -144 0
v -400 -160 0
v -416 -160 0
v -416 -144 0
v -400 -144 0
v -416 -160 0
v -432 -160 0
v -432 -144 0
v -416 -144 0
v -432 -160 0
v -448 -160 0
v -448 -144 0
v -432 -144 0
v -448 -160 0
v -464 -160 0
v -464 -144 0
v -448 -144 0
v -112 -176 0
v -128 -176 0
v -128 -160 0
v -112 -160 0
v -128 -176 0
v -144 -176 0
v -144 -160 0
v -128 -160 0
v -144 -176 0
v -160 -176 0
v -160 -160 0
v -144 -160 0
v -160 -176 0
v -176 -176 0
v -176 -160 0
v -160 -160 0
v -176 -176 0
v -192 -176 0
v -192 -160 0
v -176 -160 0
v -192 -176 0
v -208 -176 0
v -208 -160 0
v -192 -160 0
v -208 -176 0
v -224 -176 0
v -224 -160 0
v -208 -160 0
v -224 -176 0
v -240 -176 0
v -240 -160 0
v -224 -160 0
v -240 -176 0
v -256 -176 0
v -256 -160 0
v -240 -160 0
v -256 -176 0
v -272 -176 0
v -272 -160 0
v -256 -160 0
v -272 -176 0
v -288 -176 0
v -288 -160 0
v -272 -160 0
v -288 -176 0
v -304 -176 0
v -304 -160 0
v -288 -160 0
v -304 -176 0
v -320 -176 0
v -320 -160 0
v -304 -160 0
v -320 -176 0
v -336 -176 0
v -336 -160 0
v -320 -160 0
v -336 -176 0
v -352 -176 0
v -352 -160 0
v -336 -160 0
v -352 -176 0
v -368 -176 0
v -368 -160 0
v -352 -160 0
v -368 -176 0
v -384 -176 0
v -384 -160 0
v -368 -160 0
v -384 -176 0
v -400 -176 0
v -400 -160 0
v -384 -160 0
v -400 -176 0
v -416 -176 0
v -416 -160 0
v -400 -160 0
v -416 -176 0
v -432 -176 0
v -432 -160 0
v -416 -160 0
v -432 -176 0
v -448 -176 0
v -448 -160 0
v -432 -160 0
v -448 -176 0
v -464 -176 0
v -464 -160 0
v -448 -160 0
v -112 -192 0
v -128 -192 0
v -128 -176 0
v -112 -176 0
v -128 -192 0
v -144 -192 0
v -144 -176 0
v -128 -176 0
v -144 -192 0
v -160 -192 0
v -160 -176 0
v -144 -176 0
v -160 -192 0
v -176 -192 0
v -176 -176 0
v -160 -176 0
v -176 -192 0
v -192 -192 0
v -192 -176 0
v -176 -176 0
v -192 -192 0
v -208 -192 0
v -208 -176 0
v -192 -176 0
v -208 -192 0
v -224 -192 0
v -224 -176 0
v -208 -176 0
v -224 -192 0
v -240 -192 0
v -240 -176 0
v -224 -176 0
v -240 -192 0
v -256 -192 0
v -256 -176 0
v -240 -176 0
v -256 -192 0
v -272 -192 0
v -272 -176 0
v -256 -176 0
v -272 -192 0
v -288 -192 0
v -288 -176 0
v -272 -176 0
v -288 -192 0
v -304 -192 0
v -304 -176 0
v -288 -176 0
v -304 -192 0
v -320 -192 0
v -320 -176 0
v -304 -176 0
v -320 -192 0
v -336 -192 0
v -336 -176 0
v -320 -176 0
v -336 -192 0
v -352 -192 0
v -352 -176 0
v -336 -176 0
v -352 -192 0
v -368 -192 0
v -368 -176 0
v -352 -176 0
v -368 -192 0
v -384 -192 0
v -384 -176 0
v -368 -176 0
v -384 -192 0
v -400 -192 0
v -400 -176 0
v -384 -176 0
v -400 -192 0
v -416 -192 0
v -416 -176 0
v -400 -176 0
v -416 -192 0
v -432 -192 0
v -432 -176 0
v -416 -176 0
v -432 -192 0
v -448 -192 0
v -448 -176 0
v -432 -176 0
v -448 -192 0
v -464 -192 0
v -464 -176 0
v -448 -176 0
v -112 -208 0
v -128 -208 0
v -128 -192 0
v -112 -192 0
v -128 -208 0
v -144 -208 0
v -144 -192 0
v -128 -192 0
v -144 -208 0
v -160 -208 0
v -160 -192 0
v -144 -192 0
v -160 -208 0
v -176 -208 0
v -176 -192 0
v -160 -192 0
v -176 -208 0
v -192 -208 0
v -192 -192 0
v -176 -192 0
v -192 -208 0
v -208 -208 0
v -208 -192 0
v -192 -192 0
v -208 -208 0
v -224 -208 0
v -224 -192 0
v -208 -192 0
v -224 -208 0
v -240 -208 0
v -240 -192 0
v -224 -192 0
v -240 -208 0
v -256 -208 0
v -256 -192 0
v -240 -192 0
v -256 -208 0
v -272 -208 0
v -272 -192 0
v -256 -192 0
v -272 -208 0
v -288 -208 0
v -288 -192 0
v -272 -192 0
v -288 -208 0
v -304 -208 0
v -304 -192 0
v -288 -192 0
v -304 -208 0
v -320 -208 0
v -320 -192 0
v -304 -192 0
v -320 -208 0
v -336 -208 0
v -336 -192 0
v -320 -192 0
v -336 -208 0
v -352 -208 0
v -352 -192 0
v -336 -192 0
v -352 -208 0
v -368 -208 0
v -368 -192 0
v -352 -192 0
v -368 -208 0
v -384 -208 0
v -384 -192 0
v -368 -192 0
v -384 -208 0
v -400 -208 0
v -400 -192 0
v -384 -192 0
v -400 -208 0
v -416 -208 0
v -416 -192 0
v -400 -192 0
v -416 -208 0
v -432 -208 0
v -432 -192 0
v -416 -192 0
v -432 -208 0
v -448 -208 0
v -448 -192 0
v -432 -192 0
v -448 -208 0
v -464 -208 0
v -464 -192 0
v -448 -192 0
v -112 -224 0
v -128 -224 0
v -128 -208 0
v -112 -208 0
v -128 -224 0
v -144 -224 0
v -144 -208 0
v -128 -208 0
v -144 -224 0
v -160 -224 0
v -160 -208 0
v -144 -208 0
v -160 -224 0
v -176 -224 0
v -176 -208 0
v -160 -208 0
v -176 -224 0
v -192 -224 0
v -192 -208 0
v -176 -208 0
v -192 -224 0
v -208 -224 0
v -208 -208 0
v -192 -208 0
v -208 -224 0
v -224 -224 0
v -224 -208 0
v -208 -208 0
v -224 -224 0
v -240 -224 0
v -240 -208 0
v -224 -208 0
v -240 -224 0
v -256 -224 0
v -256 -208 0
v -240 -208 0
v -256 -224 0
v -272 -224 0
v -272 -208 0
v -256 -208 0
v -272 -224 0
v -288 -224 0
v -288 -208 0
v -272 -208 0
v -288 -224 0
v -304 -224 0
v -304 -208 0
v -288 -208 0
v -304 -224 0
v -320 -224 0
v -320 -208 0
v -304 -208 0
v -320 -224 0
v -336 -224 0
v -336 -208 0
v -320 -208 0
v -336 -224 0
v -352 -224 0
v -352 -208 0
v -336 -208 0
v -352 -224 0
v -368 -224 0
v -368 -208 0
v -352 -208 0
v -368 -224 0
v -384 -224 0
v -384 -208 0
v -368 -208 0
v -384 -224 0
v -400 -224 0
v -400 -208 0
v -384 -208 0
v -400 -224 0
v -416 -224 0
v -416 -208 0
v -400 -208 0
v -416 -224 0
v -432 -224 0
v -432 -208 0
v -416 -208 0
v -432 -224 0
v -448 -224 0
v -448 -208 0
v -432 -208 0
v -448 -224 0
v -464 -224 0
v -464 -208 0
v -448 -208 0
v -112 -240 0
v -128 -240 0
v -128 -224 0
v -112 -224 0
v -128 -240 0
v -144 -240 0
v -144 -224 0
v -128 -224 0
v -144 -240 0
v -160 -240 0
v -160 -224 0
v -144 -224 0
v -160 -240 0
v -176 -240 0
v -176 -224 0
v -160 -224 0
v -176 -240 0
v -192 -240 0
v -192 -224 0
v -176 -224 0
v -192 -240 0
v -208 -240 0
v -208 -224 0
v -192 -224 0
v -208 -240 0
v -224 -240 0
v -224 -224 0
v -208 -224 0
v -224 -240 0
v -240 -240 0
v -240 -224 0
v -224 -224 0
v -240 -240 0
v -256 -240 0
v -256 -224 0
v -240 -224 0
v -256 -240 0
v -272 -240 0
v -272 -224 0
v -256 -224 0
v -272 -240 0
v -288 -240 0
v -288 -224 0
v -272 -224 0
v -288 -240 0
v -304 -240 0
v -304 -224 0
v -288 -224 0
v -304 -240 0
v -320 -240 0
v -320 -224 0
v -304 -224 0
v -320 -240 0
v -336 -240 0
v -336 -224 0
v -320 -224 0
v -336 -240 0
v -352 -240 0
v -352 -224 0
v -336 -224 0
v -352 -240 0
v -368 -240 0
v -368 -224 0
v -352 -224 0
v -368 -240 0
v -384 -240 0
v -384 -224 0
v -368 -224 0
v -384 -240 0
v -400 -240 0
v -400 -224 0
v -384 -224 0
v -400 -240 0
v -416 -240 0
v -416 -224 0
v -400 -224 0
v -416 -240 0
v -432 -240 0
v -432 -224 0
v -416 -224 0
v -432 -240 0
v -448 -240 0
v -448 -224 0
v -432 -224 0
v -448 -240 0
v -464 -240 0
v -464 -224 0
v -448 -224 0
v -112 -256 0
v -128 -256 0
v -128 -240 0
v -112 -240 0
v -128 -256 0
v -144 -256 0
v -144 -240 0
v -128 -240 0
v -144 -256 0
v -160 -256 0
v -160 -240 0
v -144 -240 0
v -160 -256 0
v -176 -256 0
v -176 -240 0
v -160 -240 0
v -176 -256 0
v -192 -256 0
v -192 -240 0
v -176 -240 0
v -192 -256 0
v -208 -256 0
v -208 -240 0
v -192 -240 0
v -208 -256 0
v -224 -256 0
v -224 -240 0
v -208 -240 0
v -224 -256 0
v -240 -256 0
v -240 -240 0
v -224 -240 0
v -240 -256 0
v -256 -256 0
v -256 -240 0
v -240 -240 0
v -256 -256 0
v -272 -256 0
v -272 -240 0
v -256 -240 0
v -272 -256 0
v -288 -256 0
v -288 -240 0
v -272 -240 0
v -288 -256 0
v -304 -256 0
v -304 -240 0
v -288 -240 0
v -304 -256 0
v -320 -256 0
v -320 -240 0
v -304 -240 0
v -320 -256 0
v -336 -256 0
v -336 -240 0
v -320 -240 0
v -336 -256 0
v -352 -256 0
v -352 -240 0
v -336 -240 0
v -352 -256 0
v -368 -256 0
v -368 -240 0
v -352 -240 0
v -368 -256 0
v -384 -256 0
v -384 -240 0
v -368 -240 0
v -384 -256 0
v -400 -256 0
v -400 -240 0
v -384 -240 0
v -400 -256 0
v -416 -256 0
v -416 -240 0
v -400 -240 0
v -416 -256 0
v -432 -256 0
v -432 -240 0
v -416 -240 0
v -432 -256 0
v -448 -256 0
v -448 -240 0
v -432 -240 0
v -448 -256 0
v -464 -256 0
v -464 -240 0
v -448 -240 0
v -112 -272 0
v -128 -272 0
v -128 -256 0
v -112 -256 0
v -128 -272 0
v -144 -272 0
v -144 -256 0
v -128 -256 0
v -144 -272 0
v -160 -272 0
v -160 -256 0
v -144 -256 0
v -160 -272 0
v -176 -272 0
v -176 -256 0
v -160 -256 0
v -176 -272 0
v -192 -272 0
v -192 -256 0
v -176 -256 0
v -192 -272 0
v -208 -272 0
v -208 -256 0
v -192 -256 0
v -208 -272 0
v -224 -272 0
v -224 -256 0
v -208 -256 0
v -224 -272 0
v -240 -272 0
v -240 -256 0
v -224 -256 0
v -240 -272 0
v -256 -272 0
v -256 -256 0
v -240 -256 0
v -256 -272 0
v -272 -272 0
v -272 -256 0
v -256 -256 0
v -272 -272 0
v -288 -272 0
v -288 -256 0
v -272 -256 0
v -288 -272 0
v -304 -272 0
v -304 -256 0
v -288 -256 0
v -304 -272 0
v -320 -272 0
v -320 -256 0
v -304 -256 0
v -320 -272 0
v -336 -272 0
v -336 -256 0
v -320 -256 0
v -336 -272 0
v -352 -272 0
v -352 -256 0
v -336 -256 0
v -352 -272 0
v -368 -272 0
v -368 -256 0
v -352 -256 0
v -368 -272 0
v -384 -272 0
v -384 -256 0
v -368 -256 0
v -384 -272 0
v -400 -272 0
v -400 -256 0
v -384 -256 0
v -400 -272 0
v -416 -272 0
v -416 -256 0
v -400 -256 0
v -416 -272 0
v -432 -272 0
v -432 -256 0
v -416 -256 0
v -432 -272 0
v -448 -272 0
v -448 -256 0
v -432 -256 0
v -448 -272 0
v -464 -272 0
v -464 -256 0
v -448 -256 0
v -224 -288 0
v -240 -288 0
v -240 -272 0
v -224 -272 0
v -240 -288 0
v -256 -288 0
v -256 -272 0
v -240 -272 0
v -256 -288 0
v -272 -288 0
v -272 -272 0
v -256 -272 0
v -272 -288 0
v -288 -288 0
v -288 -272 0
v -272 -272 0
v -288 -288 0
v -304 -288 0
v -304 -272 0
v -288 -272 0
v -304 -288 0
v -320 -288 0
v -320 -272 0
v -304 -272 0
v -320 -288 0
v -336 -288 0
v -336 -272 0
v -320 -272 0
v -336 -288 0
v -352 -288 0
v -352 -272 0
v -336 -272 0
v -352 -288 0
v -368 -288 0
v -368 -272 0
v -352 -272 0
v -224 -304 0
v -240 -304 0
v -240 -288 0
v -224 -288 0
v -240 -304 0
v -256 -304 0
v -256 -288 0
v -240 -288 0
v -256 -304 0
v -272 -304 0
v -272 -288 0
v -256 -288 0
v -272 -304 0
v -288 -304 0
v -288 -288 0
v -272 -288 0
v -288 -304 0
v -304 -304 0
v -304 -288 0
v -288 -288 0
v -304 -304 0
v -320 -304 0
v -320 -288 0
v -304 -288 0
v -320 -304 0
v -336 -304 0
v -336 -288 0
v -320 -288 0
v -336 -304 0
v -352 -304 0
v -352 -288 0
v -336 -288 0
v -352 -304 0
v -368 -304 0
v -368 -288 0
v -352 -288 0
v -224 -320 0
v -240 -320 0
v -240 -304 0
v -224 -304 0
v -240 -320 0
v -256 -320 0
v -256 -304 0
v -240 -304 0
v -256 -320 0
v -272 -320 0
v -272 -304 0
v -256 -304 0
v -272 -320 0
v -288 -320 0
v -288 -304 0
v -272 -304 0
v -288 -320 0
v -304 -320 0
v -304 -304 0
v -288 -304 0
v -304 -320 0
v -320 -320 0
v -320 -304 0
v -304 -304 0
v -320 -320 0
v -336 -320 0
v -336 -304 0
v -320 -304 0
v -336 -320 0
v -352 -320 0
v -352 -304 0
v -336 -304 0
v -352 -320 0
v -368 -320 0
v -368 -304 0
v -352 -304 0
v -224 -336 0
v -240 -336 0
v -240 -320 0
v -224 -320 0
v -240 -336 0
v -256 -336 0
v -256 -320 0
v -240 -320 0
v -256 -336 0
v -272 -336 0
v -272 -320 0
v -256 -320 0
v -272 -336 0
v -288 -336 0
v -288 -320 0
v -272 -320 0
v -288 -336 0
v -304 -336 0
v -304 -320 0
v -288 -320 0
v -304 -336 0
v -320 -336 0
v -320 -320 0
v -304 -320 0
v -320 -336 0
v -336 -336 0
v -336 -320 0
v -320 -320 0
v -336 -336 0
v -352 -336 0
v -352 -320 0
v -336 -320 0
v -352 -336 0
v -368 -336 0
v -368 -320 0
v -352 -320 0
v -224 -352 0
v -240 -352 0
v -240 -336 0
v -224 -336 0
v -240 -352 0
v -256 -352 0
v -256 -336 0
v -240 -336 0
v -256 -352 0
v -272 -352 0
v -272 -336 0
v -256 -336 0
v -272 -352 0
v -288 -352 0
v -288 -336 0
v -272 -336 0
v -288 -352 0
v -304 -352 0
v -304 -336 0
v -288 -336 0
v -304 -352 0
v -320 -352 0
v -320 -336 0
v -304 -336 0
v -320 -352 0
v -336 -352 0
v -336 -336 0
v -320 -336 0
v -336 -352 0
v -352 -352 0
v -352 -336 0
v -336 -336 0
v -352 -352 0
v -368 -352 0
v -368 -336 0
v -352 -336 0
v -224 -368 0
v -240 -368 0
v -240 -352 0
v -224 -352 0
v -240 -368 0
v -256 -368 0
v -256 -352 0
v -240 -352 0
v -336 -368 0
v -352 -368 0
v -352 -352 0
v -336 -352 0
v -352 -368 0
v -368 -368 0
v -368 -352 0
v -352 -352 0
v -224 -384 0
v -240 -384 0
v -240 -368 0
v -224 -368 0
v -240 -384 0
v -256 -384 0
v -256 -368 0
v -240 -368 0
v -336 -384 0
v -352 -384 0
v -352 -368 0
v -336 -368 0
v -352 -384 0
v -368 -384 0
v -368 -368 0
v -352 -368 0

# Texture cooridinates (Count = 64)
vt 0.2809917 0.5817491
vt 0.2975207 0.5817491
vt 0.2975207 0.6121673
vt 0.2809917 0.6121673
vt 0.2458678 0.5817491
vt 0.2623967 0.5817491
vt 0.2623967 0.6121673
vt 0.2458678 0.6121673
vt 0.2985537 0.5817491
vt 0.3150826 0.5817491
vt 0.3150826 0.6121673
vt 0.2985537 0.6121673
vt 0.2634298 0.5494297
vt 0.2799587 0.5494297
vt 0.2799587 0.5798479
vt 0.2634298 0.5798479
vt 0.3161157 0.4847909
vt 0.3326446 0.4847909
vt 0.3326446 0.5152091
vt 0.3161157 0.5152091
vt 0.2809917 0.5494297
vt 0.2975207 0.5494297
vt 0.2975207 0.5798479
vt 0.2809917 0.5798479
vt 0.2985537 0.5494297
vt 0.3150826 0.5494297
vt 0.3150826 0.5798479
vt 0.2985537 0.5798479
vt 0.2283058 0.4847909
vt 0.2448347 0.4847909
vt 0.2448347 0.5152091
vt 0.2283058 0.5152091
vt 0.2985537 0.4847909
vt 0.3150826 0.4847909
vt 0.3150826 0.5152091
vt 0.2985537 0.5152091
vt 0.3336777 0.4847909
vt 0.3502066 0.4847909
vt 0.3502066 0.5152091
vt 0.3336777 0.5152091
vt 0.1053719 0.904943
vt 0.1219008 0.904943
vt 0.1219008 0.9353612
vt 0.1053719 0.9353612
vt 0.2458678 0.4847909
vt 0.2623967 0.4847909
vt 0.2623967 0.5152091
vt 0.2458678 0.5152091
vt 0.2809917 0.4847909
vt 0.2975207 0.4847909
vt 0.2975207 0.5152091
vt 0.2809917 0.5152091
vt 0.08780992 0.904943
vt 0.1043388 0.904943
vt 0.1043388 0.9353612
vt 0.08780992 0.9353612
vt 0.2283058 0.5817491
vt 0.2448347 0.5817491
vt 0.2448347 0.6121673
vt 0.2283058 0.6121673
vt 0.2634298 0.5817491
vt 0.2799587 0.5817491
vt 0.2799587 0.6121673
vt 0.2634298 0.6121673

# Normal
vn 0 0 -1

# Mesh description
g sample_indoor_mesh_0001

# Faces
f 1/1/1 2/2/1 3/3/1 4/4/1
f 5/5/1 6/6/1 7/7/1 8/8/1
f 9/5/1 10/6/1 11/7/1 12/8/1
f 13/5/1 14/6/1 15/7/1 16/8/1
f 17/5/1 18/6/1 19/7/1 20/8/1
f 21/5/1 22/6/1 23/7/1 24/8/1
f 25/5/1 26/6/1 27/7/1 28/8/1
f 29/5/1 30/6/1 31/7/1 32/8/1
f 33/9/1 34/10/1 35/11/1 36/12/1
f 37/1/1 38/2/1 39/3/1 40/4/1
f 41/5/1 42/6/1 43/7/1 44/8/1
f 45/5/1 46/6/1 47/7/1 48/8/1
f 49/5/1 50/6/1 51/7/1 52/8/1
f 53/5/1 54/6/1 55/7/1 56/8/1
f 57/5/1 58/6/1 59/7/1 60/8/1
f 61/5/1 62/6/1 63/7/1 64/8/1
f 65/9/1 66/10/1 67/11/1 68/12/1
f 69/13/1 70/14/1 71/15/1 72/16/1
f 73/17/1 74/18/1 75/19/1 76/20/1
f 77/17/1 78/18/1 79/19/1 80/20/1
f 81/17/1 82/18/1 83/19/1 84/20/1
f 85/17/1 86/18/1 87/19/1 88/20/1
f 89/17/1 90/18/1 91/19/1 92/20/1
f 93/17/1 94/18/1 95/19/1 96/20/1
f 97/17/1 98/18/1 99/19/1 100/20/1
f 101/21/1 102/22/1 103/23/1 104/24/1
f 105/5/1 106/6/1 107/7/1 108/8/1
f 109/5/1 110/6/1 111/7/1 112/8/1
f 113/5/1 114/6/1 115/7/1 116/8/1
f 117/5/1 118/6/1 119/7/1 120/8/1
f 121/5/1 122/6/1 123/7/1 124/8/1
f 125/25/1 126/26/1 127/27/1 128/28/1
f 129/17/1 130/18/1 131/19/1 132/20/1
f 133/17/1 134/18/1 135/19/1 136/20/1
f 137/17/1 138/18/1 139/19/1 140/20/1
f 141/17/1 142/18/1 143/19/1 144/20/1
f 145/17/1 146/18/1 147/19/1 148/20/1
f 149/17/1 150/18/1 151/19/1 152/20/1
f 153/13/1 154/14/1 155/15/1 156/16/1
f 157/13/1 158/14/1 159/15/1 160/16/1
f 161/29/1 162/30/1 163/31/1 164/32/1
f 165/29/1 166/30/1 167/31/1 168/32/1
f 169/29/1 170/30/1 171/31/1 172/32/1
f 173/29/1 174/30/1 175/31/1 176/32/1
f 177/29/1 178/30/1 179/31/1 180/32/1
f 181/29/1 182/30/1 183/31/1 184/32/1
f 185/29/1 186/30/1 187/31/1 188/32/1
f 189/33/1 190/34/1 191/35/1 192/36/1
f 193/17/1 194/18/1 195/19/1 196/20/1
f 197/17/1 198/18/1 199/19/1 200/20/1
f 201/17/1 202/18/1 203/19/1 204/20/1
f 205/17/1 206/18/1 207/19/1 208/20/1
f 209/17/1 210/18/1 211/19/1 212/20/1
f 213/37/1 214/38/1 215/39/1 216/40/1
f 217/29/1 218/30/1 219/31/1 220/32/1
f 221/29/1 222/30/1 223/31/1 224/32/1
f 225/29/1 226/30/1 227/31/1 228/32/1
f 229/29/1 230/30/1 231/31/1 232/32/1
f 233/29/1 234/30/1 235/31/1 236/32/1
f 237/29/1 238/30/1 239/31/1 240/32/1
f 241/13/1 242/14/1 243/15/1 244/16/1
f 245/13/1 246/14/1 247/15/1 248/16/1
f 249/41/1 250/42/1 251/43/1 252/44/1
f 253/41/1 254/42/1 255/43/1 256/44/1
f 257/41/1 258/42/1 259/43/1 260/44/1
f 261/41/1 262/42/1 263/43/1 264/44/1
f 265/41/1 266/42/1 267/43/1 268/44/1
f 269/41/1 270/42/1 271/43/1 272/44/1
f 273/41/1 274/42/1 275/43/1 276/44/1
f 277/45/1 278/46/1 279/47/1 280/48/1
f 281/29/1 282/30/1 283/31/1 284/32/1
f 285/29/1 286/30/1 287/31/1 288/32/1
f 289/29/1 290/30/1 291/31/1 292/32/1
f 293/29/1 294/30/1 295/31/1 296/32/1
f 297/29/1 298/30/1 299/31/1 300/32/1
f 301/49/1 302/50/1 303/51/1 304/52/1
f 305/41/1 306/42/1 307/43/1 308/44/1
f 309/41/1 310/42/1 311/43/1 312/44/1
f 313/41/1 314/42/1 315/43/1 316/44/1
f 317/41/1 318/42/1 319/43/1 320/44/1
f 321/41/1 322/42/1 323/43/1 324/44/1
f 325/41/1 326/42/1 327/43/1 328/44/1
f 329/13/1 330/14/1 331/15/1 332/16/1
f 333/13/1 334/14/1 335/15/1 336/16/1
f 337/41/1 338/42/1 339/43/1 340/44/1
f 341/41/1 342/42/1 343/43/1 344/44/1
f 345/41/1 346/42/1 347/43/1 348/44/1
f 349/41/1 350/42/1 351/43/1 352/44/1
f 353/41/1 354/42/1 355/43/1 356/44/1
f 357/41/1 358/42/1 359/43/1 360/44/1
f 361/41/1 362/42/1 363/43/1 364/44/1
f 365/53/1 366/54/1 367/55/1 368/56/1
f 369/53/1 370/54/1 371/55/1 372/56/1
f 373/53/1 374/54/1 375/55/1 376/56/1
f 377/53/1 378/54/1 379/55/1 380/56/1
f 381/53/1 382/54/1 383/55/1 384/56/1
f 385/53/1 386/54/1 387/55/1 388/56/1
f 389/53/1 390/54/1 391/55/1 392/56/1
f 393/41/1 394/42/1 395/43/1 396/44/1
f 397/41/1 398/42/1 399/43/1 400/44/1
f 401/41/1 402/42/1 403/43/1 404/44/1
f 405/41/1 406/42/1 407/43/1 408/44/1
f 409/41/1 410/42/1 411/43/1 412/44/1
f 413/41/1 414/42/1 415/43/1 416/44/1
f 417/13/1 418/14/1 419/15/1 420/16/1
f 421/13/1 422/14/1 423/15/1 424/16/1
f 425/41/1 426/42/1 427/43/1 428/44/1
f 429/41/1 430/42/1 431/43/1 432/44/1
f 433/41/1 434/42/1 435/43/1 436/44/1
f 437/41/1 438/42/1 439/43/1 440/44/1
f 441/41/1 442/42/1 443/43/1 444/44/1
f 445/41/1 446/42/1 447/43/1 448/44/1
f 449/41/1 450/42/1 451/43/1 452/44/1
f 453/53/1 454/54/1 455/55/1 456/56/1
f 457/53/1 458/54/1 459/55/1 460/56/1
f 461/53/1 462/54/1 463/55/1 464/56/1
f 465/53/1 466/54/1 467/55/1 468/56/1
f 469/53/1 470/54/1 471/55/1 472/56/1
f 473/53/1 474/54/1 475/55/1 476/56/1
f 477/53/1 478/54/1 479/55/1 480/56/1
f 481/41/1 482/42/1 483/43/1 484/44/1
f 485/41/1 486/42/1 487/43/1 488/44/1
f 489/41/1 490/42/1 491/43/1 492/44/1
f 493/41/1 494/42/1 495/43/1 496/44/1
f 497/41/1 498/42/1 499/43/1 500/44/1
f 501/41/1 502/42/1 503/43/1 504/44/1
f 505/13/1 506/14/1 507/15/1 508/16/1
f 509/21/1 510/22/1 511/23/1 512/24/1
f 513/5/1 514/6/1 515/7/1 516/8/1
f 517/5/1 518/6/1 519/7/1 520/8/1
f 521/5/1 522/6/1 523/7/1 524/8/1
f 525/5/1 526/6/1 527/7/1 528/8/1
f 529/5/1 530/6/1 531/7/1 532/8/1
f 533/5/1 534/6/1 535/7/1 536/8/1
f 537/9/1 538/10/1 539/11/1 540/12/1
f 541/53/1 542/54/1 543/55/1 544/56/1
f 545/53/1 546/54/1 547/55/1 548/56/1
f 549/53/1 550/54/1 551/55/1 552/56/1
f 553/53/1 554/54/1 555/55/1 556/56/1
f 557/53/1 558/54/1 559/55/1 560/56/1
f 561/53/1 562/54/1 563/55/1 564/56/1
f 565/53/1 566/54/1 567/55/1 568/56/1
f 569/1/1 570/2/1 571/3/1 572/4/1
f 573/5/1 574/6/1 575/7/1 576/8/1
f 577/5/1 578/6/1 579/7/1 580/8/1
f 581/5/1 582/6/1 583/7/1 584/8/1
f 585/5/1 586/6/1 587/7/1 588/8/1
f 589/5/1 590/6/1 591/7/1 592/8/1
f 593/25/1 594/26/1 595/27/1 596/28/1
f 597/33/1 598/34/1 599/35/1 600/36/1
f 601/17/1 602/18/1 603/19/1 604/20/1
f 605/17/1 606/18/1 607/19/1 608/20/1
f 609/17/1 610/18/1 611/19/1 612/20/1
f 613/17/1 614/18/1 615/19/1 616/20/1
f 617/17/1 618/18/1 619/19/1 620/20/1
f 621/17/1 622/18/1 623/19/1 624/20/1
f 625/13/1 626/14/1 627/15/1 628/16/1
f 629/53/1 630/54/1 631/55/1 632/56/1
f 633/53/1 634/54/1 635/55/1 636/56/1
f 637/53/1 638/54/1 639/55/1 640/56/1
f 641/53/1 642/54/1 643/55/1 644/56/1
f 645/53/1 646/54/1 647/55/1 648/56/1
f 649/53/1 650/54/1 651/55/1 652/56/1
f 653/53/1 654/54/1 655/55/1 656/56/1
f 657/13/1 658/14/1 659/15/1 660/16/1
f 661/17/1 662/18/1 663/19/1 664/20/1
f 665/17/1 666/18/1 667/19/1 668/20/1
f 669/17/1 670/18/1 671/19/1 672/20/1
f 673/17/1 674/18/1 675/19/1 676/20/1
f 677/17/1 678/18/1 679/19/1 680/20/1
f 681/37/1 682/38/1 683/39/1 684/40/1
f 685/45/1 686/46/1 687/47/1 688/48/1
f 689/29/1 690/30/1 691/31/1 692/32/1
f 693/29/1 694/30/1 695/31/1 696/32/1
f 697/29/1 698/30/1 699/31/1 700/32/1
f 701/29/1 702/30/1 703/31/1 704/32/1
f 705/29/1 706/30/1 707/31/1 708/32/1
f 709/29/1 710/30/1 711/31/1 712/32/1
f 713/13/1 714/14/1 715/15/1 716/16/1
f 717/53/1 718/54/1 719/55/1 720/56/1
f 721/53/1 722/54/1 723/55/1 724/56/1
f 725/53/1 726/54/1 727/55/1 728/56/1
f 729/53/1 730/54/1 731/55/1 732/56/1
f 733/53/1 734/54/1 735/55/1 736/56/1
f 737/53/1 738/54/1 739/55/1 740/56/1
f 741/53/1 742/54/1 743/55/1 744/56/1
f 745/13/1 746/14/1 747/15/1 748/16/1
f 749/29/1 750/30/1 751/31/1 752/32/1
f 753/29/1 754/30/1 755/31/1 756/32/1
f 757/29/1 758/30/1 759/31/1 760/32/1
f 761/29/1 762/30/1 763/31/1 764/32/1
f 765/29/1 766/30/1 767/31/1 768/32/1
f 769/49/1 770/50/1 771/51/1 772/52/1
f 773/13/1 774/14/1 775/15/1 776/16/1
f 777/53/1 778/54/1 779/55/1 780/56/1
f 781/53/1 782/54/1 783/55/1 784/56/1
f 785/53/1 786/54/1 787/55/1 788/56/1
f 789/53/1 790/54/1 791/55/1 792/56/1
f 793/53/1 794/54/1 795/55/1 796/56/1
f 797/53/1 798/54/1 799/55/1 800/56/1
f 801/53/1 802/54/1 803/55/1 804/56/1
f 805/13/1 806/14/1 807/15/1 808/16/1
f 809/13/1 810/14/1 811/15/1 812/16/1
f 813/53/1 814/54/1 815/55/1 816/56/1
f 817/53/1 818/54/1 819/55/1 820/56/1
f 821/53/1 822/54/1 823/55/1 824/56/1
f 825/53/1 826/54/1 827/55/1 828/56/1
f 829/53/1 830/54/1 831/55/1 832/56/1
f 833/53/1 834/54/1 835/55/1 836/56/1
f 837/53/1 838/54/1 839/55/1 840/56/1
f 841/13/1 842/14/1 843/15/1 844/16/1
f 845/21/1 846/22/1 847/23/1 848/24/1
f 849/5/1 850/6/1 851/7/1 852/8/1
f 853/5/1 854/6/1 855/7/1 856/8/1
f 857/5/1 858/6/1 859/7/1 860/8/1
f 861/5/1 862/6/1 863/7/1 864/8/1
f 865/5/1 866/6/1 867/7/1 868/8/1
f 869/5/1 870/6/1 871/7/1 872/8/1
f 873/5/1 874/6/1 875/7/1 876/8/1
f 877/25/1 878/26/1 879/27/1 880/28/1
f 881/33/1 882/34/1 883/35/1 884/36/1
f 885/17/1 886/18/1 887/19/1 888/20/1
f 889/17/1 890/18/1 891/19/1 892/20/1
f 893/17/1 894/18/1 895/19/1 896/20/1
f 897/17/1 898/18/1 899/19/1 900/20/1
f 901/17/1 902/18/1 903/19/1 904/20/1
f 905/17/1 906/18/1 907/19/1 908/20/1
f 909/17/1 910/18/1 911/19/1 912/20/1
f 913/37/1 914/38/1 915/39/1 916/40/1
f 917/45/1 918/46/1 919/47/1 920/48/1
f 921/29/1 922/30/1 923/31/1 924/32/1
f 925/29/1 926/30/1 927/31/1 928/32/1
f 929/29/1 930/30/1 931/31/1 932/32/1
f 933/29/1 934/30/1 935/31/1 936/32/1
f 937/29/1 938/30/1 939/31/1 940/32/1
f 941/29/1 942/30/1 943/31/1 944/32/1
f 945/29/1 946/30/1 947/31/1 948/32/1
f 949/49/1 950/50/1 951/51/1 952/52/1
f 953/57/1 954/58/1 955/59/1 956/60/1
f 957/5/1 958/6/1 959/7/1 960/8/1
f 961/5/1 962/6/1 963/7/1 964/8/1
f 965/61/1 966/62/1 967/63/1 968/64/1
f 969/45/1 970/46/1 971/47/1 972/48/1
f 973/29/1 974/30/1 975/31/1 976/32/1
f 977/29/1 978/30/1 979/31/1 980/32/1
f 981/49/1 982/50/1 983/51/1 984/52/1

