# Tiled2Unity generated file. Do not modify by hand.
# Wavefront file for 'sample_indoor_mesh_0004.obj'

# Vertices (Count = 24)
v -144 -160 0
v -160 -160 0
v -160 -144 0
v -144 -144 0
v -176 -160 0
v -192 -160 0
v -192 -144 0
v -176 -144 0
v -208 -160 0
v -224 -160 0
v -224 -144 0
v -208 -144 0
v -288 -192 0
v -304 -192 0
v -304 -176 0
v -288 -176 0
v -384 -208 0
v -400 -208 0
v -400 -192 0
v -384 -192 0
v -288 -352 0
v -304 -352 0
v -304 -336 0
v -288 -336 0

# Texture cooridinates (Count = 16)
vt 0.9483471 0.8403042
vt 0.9648761 0.8403042
vt 0.9648761 0.8707224
vt 0.9483471 0.8707224
vt 0.8780992 0.6463878
vt 0.8946281 0.6463878
vt 0.8946281 0.6768061
vt 0.8780992 0.6768061
vt 0.7376033 0.4847909
vt 0.7541322 0.4847909
vt 0.7541322 0.5152091
vt 0.7376033 0.5152091
vt 0.6497934 0.9372624
vt 0.6663223 0.9372624
vt 0.6663223 0.9676806
vt 0.6497934 0.9676806

# Normal
vn 0 0 -1

# Mesh description
g sample_indoor_mesh_0004

# Faces
f 1/1/1 2/2/1 3/3/1 4/4/1
f 5/1/1 6/2/1 7/3/1 8/4/1
f 9/1/1 10/2/1 11/3/1 12/4/1
f 13/5/1 14/6/1 15/7/1 16/8/1
f 17/9/1 18/10/1 19/11/1 20/12/1
f 21/13/1 22/14/1 23/15/1 24/16/1

